<svg id="logo" style="filter: invert(1)" width="610" height="353" viewBox="0 0 610 353" fill="none" xmlns="http://www.w3.org/2000/svg">
<mask id="path-1-inside-1_452_1449" fill="white">
<path d="M114.386 351.606C107.192 351.053 103.804 350.5 103.209 349.947C102.734 349.455 101.366 348.779 100.177 348.472C98.9884 348.165 93.9947 346.936 89.0604 345.707C84.1856 344.539 80.0836 343.249 79.9647 342.88C79.8458 342.512 79.4891 342.389 79.1918 342.635C78.8946 342.819 78.6568 342.635 78.6568 342.266C78.6568 341.836 78.3001 341.651 77.8245 341.836C77.3489 342.02 76.8733 342.02 76.7544 341.774C76.5166 341.221 73.3658 339.685 68.2532 337.657C65.9941 336.797 63.735 335.568 63.3783 335.015C62.9622 334.523 62.6055 334.278 62.6055 334.646C62.6055 334.954 62.3677 334.892 62.1299 334.523C61.8921 334.155 59.7519 332.68 57.3145 331.205C53.1531 328.747 51.3101 327.334 48.8133 324.876C48.2188 324.262 46.6137 323.217 45.3652 322.541C44.0573 321.804 42.9872 321.005 42.9872 320.698C42.9872 320.39 42.6306 320.206 42.2739 320.329C41.8577 320.39 41.5605 320.145 41.6199 319.714C41.7388 319.038 37.9341 315.229 35.3778 313.385C34.6644 312.894 34.0699 312.218 34.0699 311.849C34.0699 311.542 32.7025 310.006 31.038 308.469C29.3734 306.995 27.2927 304.475 26.4604 302.939C25.6281 301.403 23.7257 299.006 22.3584 297.532C20.9316 296.057 19.8021 294.336 19.8021 293.783C19.8021 292.616 17.0674 288.007 16.1756 287.7C15.8784 287.577 15.6406 287.208 15.6406 286.901C15.6406 286.594 15.165 285.795 14.63 285.119C14.0949 284.443 13.0248 281.74 12.252 279.159C11.4792 276.516 10.528 274.059 10.0524 273.751C8.6256 272.645 6.90157 268.282 6.12873 263.92C5.71259 261.585 4.8803 258.266 4.2858 256.546C3.63186 254.887 3.15627 252.183 3.15627 250.585C3.15627 248.865 2.79958 247.329 2.26453 246.776C0.659406 245.117 0.00546232 239.033 0.00546232 223.978C-0.0539869 207.695 0.362163 202.164 1.7295 202.164C2.20509 202.164 2.56178 201.98 2.56178 201.673C2.56178 199.03 3.98856 190.796 4.6425 189.445C5.1181 188.523 5.53424 187.232 5.53424 186.557C5.53424 182.931 8.68505 174.083 10.5874 172.362C11.0036 172.055 11.5981 170.519 12.0142 168.982C12.9059 165.849 16.6512 158.475 17.7808 157.737C18.1969 157.492 18.9698 156.017 19.5643 154.358C20.0993 152.76 21.1694 150.917 21.8828 150.241C22.5962 149.565 24.0824 147.66 25.1525 146.001C28.8383 140.348 48.9322 120.438 50.9534 120.438C51.3696 120.438 52.618 119.578 53.6881 118.595C54.7582 117.612 55.9472 116.752 56.3039 116.752C56.6011 116.752 57.5523 116.076 58.3846 115.277C59.2763 114.478 61.3571 113.31 63.1405 112.696C64.924 112.082 67.2425 110.668 68.3721 109.624C69.8583 108.21 72.2363 107.104 77.9434 105.384C82.1048 104.093 86.0285 102.496 86.7419 101.881C87.4553 101.205 90.7844 100.099 94.7675 99.1774C118.309 93.8314 157.486 95.0604 170.03 101.512C171.992 102.557 174.073 103.233 174.608 103.049C175.143 102.803 175.559 102.864 175.559 103.172C175.559 103.417 177.878 104.462 180.731 105.445C185.368 106.981 188.578 108.579 190.897 110.668C191.313 111.037 192.978 111.774 194.523 112.327C197.258 113.31 198.328 113.986 203.381 118.103C204.511 119.087 205.819 119.824 206.235 119.824C206.651 119.824 208.256 120.93 209.742 122.282C211.229 123.634 212.715 124.74 213.012 124.74C213.725 124.74 229.658 141.331 232.036 144.649C233.165 146.247 234.83 148.213 235.722 149.135C236.613 149.995 237.505 151.408 237.683 152.33C237.862 153.252 238.694 154.726 239.467 155.587C240.24 156.447 240.715 157.307 240.596 157.492C240.418 157.676 240.953 158.29 241.785 158.843C242.677 159.458 243.628 161.056 244.282 163.022C245.293 166.279 246.125 167.753 246.898 167.753C247.909 167.753 251.595 163.882 251.892 162.469C252.13 161.609 253.497 159.212 254.924 157.123C256.41 155.034 258.075 152.637 258.61 151.777C261.463 147.476 264.971 143.174 265.684 143.174C266.635 143.174 266.814 146.615 265.922 147.168C265.625 147.353 265.327 148.09 265.327 148.766C265.327 149.38 265.09 149.933 264.792 149.933C264.495 149.933 264.079 151.593 263.841 153.62C263.544 156.078 263.128 157.492 262.474 157.86C261.582 158.352 261.463 160.011 261.463 171.317C261.463 182.747 261.582 184.344 262.533 185.389C263.068 186.065 263.544 187.294 263.544 188.154C263.544 189.69 265.149 195.221 265.922 196.327C266.16 196.695 266.576 198.17 266.754 199.706C267.051 201.611 268.003 203.639 269.786 206.158C271.272 208.186 272.877 210.767 273.353 211.873C273.888 213.041 275.434 215.068 276.801 216.482C278.168 217.895 280.368 220.353 281.616 222.012C282.865 223.61 284.292 224.9 284.767 224.9C285.243 224.9 286.67 225.945 287.918 227.235C291.009 230.308 293.268 232.274 293.804 232.274C294.279 232.274 300.64 236.882 302.305 238.419C302.84 238.91 305.039 240.016 307.18 240.815C309.379 241.675 311.103 242.536 311.103 242.72C311.103 242.966 312.173 243.642 313.481 244.256C314.789 244.871 315.859 245.608 315.859 245.854C315.859 246.161 317.643 246.898 319.842 247.636C324.182 248.988 331.316 252.429 331.316 253.166C331.316 253.412 334.467 254.702 338.272 255.993C342.433 257.406 345.762 258.942 346.476 259.68C347.129 260.417 350.221 261.953 353.312 262.998C357.057 264.288 359.673 265.64 361.1 266.992C362.289 268.098 364.073 269.204 365.024 269.388C366.094 269.634 368.234 271.355 370.374 273.628C373.584 277.069 374.001 277.868 374.417 280.695C375.011 285.365 374.238 291.325 372.99 291.694C372.395 291.817 371.504 292.677 370.969 293.599C369.066 296.794 366.272 299.437 364.072 299.99C356.939 301.956 341.957 301.894 333.218 299.805C327.808 298.515 326.441 297.9 324.301 295.873C323.528 295.135 321.21 293.783 319.129 292.923C316.87 291.94 314.254 290.219 312.649 288.622C311.222 287.147 309.141 285.549 308.19 285.119C307.18 284.689 306.347 284.136 306.347 283.89C306.347 283.644 304.921 282.293 303.256 280.941C297.846 276.762 288.631 275.472 278.763 277.5C273.769 278.544 271.688 279.773 267.586 283.829C266.397 285.058 264.971 286.41 264.495 286.84C263.96 287.27 263.544 288.192 263.544 288.806C263.544 289.482 263.187 290.035 262.712 290.035C261.879 290.035 260.928 292.001 260.215 295.135C259.977 296.118 259.442 296.794 258.847 296.794C257.658 296.733 252.902 290.096 251.357 286.348C249.811 282.6 246.958 279.404 245.887 280.326C245.471 280.695 245.115 281.555 245.115 282.293C245.115 283.767 243.628 286.225 242.023 287.454C241.429 287.884 240.953 288.499 240.953 288.806C240.953 289.113 240.24 290.404 239.408 291.694C238.575 292.985 237.743 294.767 237.565 295.688C237.386 296.671 236.732 297.47 235.959 297.655C235.305 297.9 233.641 299.744 232.392 301.894C231.085 303.984 228.35 307.302 226.269 309.268C224.188 311.235 222.524 313.262 222.524 313.754C222.524 314.246 222.048 314.799 221.513 315.044C219.73 315.72 215.984 318.977 215.984 319.837C215.984 320.82 213.012 323.156 212.12 322.848C211.823 322.725 209.98 324.077 208.137 325.859C205.046 328.87 202.965 330.283 200.528 331.205C198.209 332.065 193.394 335.199 193.394 335.814C193.394 336.613 192.205 337.227 186.557 339.132C181.742 340.73 177.342 342.819 177.342 343.495C177.342 343.802 175.797 344.355 173.954 344.724C172.052 345.092 169.198 345.768 167.533 346.26C165.928 346.752 162.302 347.55 159.508 348.103C156.714 348.656 154.157 349.455 153.86 349.885C152.374 351.852 129.902 352.835 114.386 351.606ZM148.331 291.817C150.65 291.325 151.839 290.772 152.077 290.035C152.433 288.867 152.909 288.683 159.983 286.348C162.54 285.488 165.096 284.197 166.285 283.03C169.079 280.388 172.646 277.745 173.419 277.745C173.835 277.745 174.548 276.947 175.143 275.963C175.678 274.98 177.045 273.383 178.115 272.399C179.185 271.416 180.255 270.187 180.493 269.696C180.731 269.204 181.861 267.606 182.99 266.07C184.12 264.534 185.428 262.752 185.903 262.076C186.379 261.4 187.568 258.512 188.578 255.686C189.53 252.859 190.897 250.217 191.491 249.725C192.383 249.111 192.859 247.636 193.334 244.441C193.691 241.983 194.286 238.111 194.642 235.899C195.296 231.414 195.475 213.532 194.821 212.488C194.583 212.119 194.167 209.415 193.929 206.527C193.394 200.812 191.967 196.45 189.886 194.545C189.232 193.869 188.638 192.947 188.638 192.456C188.638 190.243 186.973 186.802 183.882 182.624C182.098 180.104 180.018 177.155 179.304 176.049C178.591 174.943 177.164 173.407 176.154 172.669C175.143 171.932 173.181 170.15 171.814 168.675C170.446 167.262 167.771 165.296 165.928 164.374C164.026 163.391 162.48 162.407 162.48 162.162C162.48 161.363 159.032 159.642 154.455 158.106C138.879 152.822 113.613 153.559 99.1668 159.642C96.4915 160.81 96.3727 160.871 93.5191 163.452C92.3895 164.435 91.0222 165.296 90.4277 165.296C89.1793 165.296 85.3745 168.614 84.8989 170.15C84.7206 170.764 83.8289 171.625 82.9371 172.055C80.3808 173.407 79.3702 174.513 78.0028 177.401C77.2894 178.937 76.3383 180.289 75.9221 180.473C75.4465 180.658 75.0898 181.149 75.0898 181.641C75.0898 182.132 74.9115 182.501 74.6737 182.501C73.3658 182.501 69.9772 189.936 68.5504 195.897C68.1937 197.371 67.5398 198.477 67.0642 198.477C65.1024 198.477 63.5567 208.985 63.5567 223.057C63.4972 237.251 64.5079 245.547 66.5291 247.329C67.4209 248.127 68.3126 250.032 68.9071 252.552C70.2744 258.082 72.3552 262.752 73.8414 263.612C74.5548 263.981 74.9709 264.534 74.7926 264.903C74.5548 265.21 75.1493 266.5 76.1005 267.729C78.8351 271.355 87.5742 280.203 89.4171 281.125C90.3683 281.678 91.3789 282.538 91.6762 283.153C91.9734 283.767 93.1624 284.566 94.2325 284.935C100.059 286.901 104.517 288.867 105.468 289.912C106.182 290.772 107.965 291.325 111.473 291.817C114.207 292.186 117.239 292.616 118.191 292.739C121.698 293.23 145.002 292.554 148.331 291.817Z"/>
</mask>
<path d="M114.386 351.606C107.192 351.053 103.804 350.5 103.209 349.947C102.734 349.455 101.366 348.779 100.177 348.472C98.9884 348.165 93.9947 346.936 89.0604 345.707C84.1856 344.539 80.0836 343.249 79.9647 342.88C79.8458 342.512 79.4891 342.389 79.1918 342.635C78.8946 342.819 78.6568 342.635 78.6568 342.266C78.6568 341.836 78.3001 341.651 77.8245 341.836C77.3489 342.02 76.8733 342.02 76.7544 341.774C76.5166 341.221 73.3658 339.685 68.2532 337.657C65.9941 336.797 63.735 335.568 63.3783 335.015C62.9622 334.523 62.6055 334.278 62.6055 334.646C62.6055 334.954 62.3677 334.892 62.1299 334.523C61.8921 334.155 59.7519 332.68 57.3145 331.205C53.1531 328.747 51.3101 327.334 48.8133 324.876C48.2188 324.262 46.6137 323.217 45.3652 322.541C44.0573 321.804 42.9872 321.005 42.9872 320.698C42.9872 320.39 42.6306 320.206 42.2739 320.329C41.8577 320.39 41.5605 320.145 41.6199 319.714C41.7388 319.038 37.9341 315.229 35.3778 313.385C34.6644 312.894 34.0699 312.218 34.0699 311.849C34.0699 311.542 32.7025 310.006 31.038 308.469C29.3734 306.995 27.2927 304.475 26.4604 302.939C25.6281 301.403 23.7257 299.006 22.3584 297.532C20.9316 296.057 19.8021 294.336 19.8021 293.783C19.8021 292.616 17.0674 288.007 16.1756 287.7C15.8784 287.577 15.6406 287.208 15.6406 286.901C15.6406 286.594 15.165 285.795 14.63 285.119C14.0949 284.443 13.0248 281.74 12.252 279.159C11.4792 276.516 10.528 274.059 10.0524 273.751C8.6256 272.645 6.90157 268.282 6.12873 263.92C5.71259 261.585 4.8803 258.266 4.2858 256.546C3.63186 254.887 3.15627 252.183 3.15627 250.585C3.15627 248.865 2.79958 247.329 2.26453 246.776C0.659406 245.117 0.00546232 239.033 0.00546232 223.978C-0.0539869 207.695 0.362163 202.164 1.7295 202.164C2.20509 202.164 2.56178 201.98 2.56178 201.673C2.56178 199.03 3.98856 190.796 4.6425 189.445C5.1181 188.523 5.53424 187.232 5.53424 186.557C5.53424 182.931 8.68505 174.083 10.5874 172.362C11.0036 172.055 11.5981 170.519 12.0142 168.982C12.9059 165.849 16.6512 158.475 17.7808 157.737C18.1969 157.492 18.9698 156.017 19.5643 154.358C20.0993 152.76 21.1694 150.917 21.8828 150.241C22.5962 149.565 24.0824 147.66 25.1525 146.001C28.8383 140.348 48.9322 120.438 50.9534 120.438C51.3696 120.438 52.618 119.578 53.6881 118.595C54.7582 117.612 55.9472 116.752 56.3039 116.752C56.6011 116.752 57.5523 116.076 58.3846 115.277C59.2763 114.478 61.3571 113.31 63.1405 112.696C64.924 112.082 67.2425 110.668 68.3721 109.624C69.8583 108.21 72.2363 107.104 77.9434 105.384C82.1048 104.093 86.0285 102.496 86.7419 101.881C87.4553 101.205 90.7844 100.099 94.7675 99.1774C118.309 93.8314 157.486 95.0604 170.03 101.512C171.992 102.557 174.073 103.233 174.608 103.049C175.143 102.803 175.559 102.864 175.559 103.172C175.559 103.417 177.878 104.462 180.731 105.445C185.368 106.981 188.578 108.579 190.897 110.668C191.313 111.037 192.978 111.774 194.523 112.327C197.258 113.31 198.328 113.986 203.381 118.103C204.511 119.087 205.819 119.824 206.235 119.824C206.651 119.824 208.256 120.93 209.742 122.282C211.229 123.634 212.715 124.74 213.012 124.74C213.725 124.74 229.658 141.331 232.036 144.649C233.165 146.247 234.83 148.213 235.722 149.135C236.613 149.995 237.505 151.408 237.683 152.33C237.862 153.252 238.694 154.726 239.467 155.587C240.24 156.447 240.715 157.307 240.596 157.492C240.418 157.676 240.953 158.29 241.785 158.843C242.677 159.458 243.628 161.056 244.282 163.022C245.293 166.279 246.125 167.753 246.898 167.753C247.909 167.753 251.595 163.882 251.892 162.469C252.13 161.609 253.497 159.212 254.924 157.123C256.41 155.034 258.075 152.637 258.61 151.777C261.463 147.476 264.971 143.174 265.684 143.174C266.635 143.174 266.814 146.615 265.922 147.168C265.625 147.353 265.327 148.09 265.327 148.766C265.327 149.38 265.09 149.933 264.792 149.933C264.495 149.933 264.079 151.593 263.841 153.62C263.544 156.078 263.128 157.492 262.474 157.86C261.582 158.352 261.463 160.011 261.463 171.317C261.463 182.747 261.582 184.344 262.533 185.389C263.068 186.065 263.544 187.294 263.544 188.154C263.544 189.69 265.149 195.221 265.922 196.327C266.16 196.695 266.576 198.17 266.754 199.706C267.051 201.611 268.003 203.639 269.786 206.158C271.272 208.186 272.877 210.767 273.353 211.873C273.888 213.041 275.434 215.068 276.801 216.482C278.168 217.895 280.368 220.353 281.616 222.012C282.865 223.61 284.292 224.9 284.767 224.9C285.243 224.9 286.67 225.945 287.918 227.235C291.009 230.308 293.268 232.274 293.804 232.274C294.279 232.274 300.64 236.882 302.305 238.419C302.84 238.91 305.039 240.016 307.18 240.815C309.379 241.675 311.103 242.536 311.103 242.72C311.103 242.966 312.173 243.642 313.481 244.256C314.789 244.871 315.859 245.608 315.859 245.854C315.859 246.161 317.643 246.898 319.842 247.636C324.182 248.988 331.316 252.429 331.316 253.166C331.316 253.412 334.467 254.702 338.272 255.993C342.433 257.406 345.762 258.942 346.476 259.68C347.129 260.417 350.221 261.953 353.312 262.998C357.057 264.288 359.673 265.64 361.1 266.992C362.289 268.098 364.073 269.204 365.024 269.388C366.094 269.634 368.234 271.355 370.374 273.628C373.584 277.069 374.001 277.868 374.417 280.695C375.011 285.365 374.238 291.325 372.99 291.694C372.395 291.817 371.504 292.677 370.969 293.599C369.066 296.794 366.272 299.437 364.072 299.99C356.939 301.956 341.957 301.894 333.218 299.805C327.808 298.515 326.441 297.9 324.301 295.873C323.528 295.135 321.21 293.783 319.129 292.923C316.87 291.94 314.254 290.219 312.649 288.622C311.222 287.147 309.141 285.549 308.19 285.119C307.18 284.689 306.347 284.136 306.347 283.89C306.347 283.644 304.921 282.293 303.256 280.941C297.846 276.762 288.631 275.472 278.763 277.5C273.769 278.544 271.688 279.773 267.586 283.829C266.397 285.058 264.971 286.41 264.495 286.84C263.96 287.27 263.544 288.192 263.544 288.806C263.544 289.482 263.187 290.035 262.712 290.035C261.879 290.035 260.928 292.001 260.215 295.135C259.977 296.118 259.442 296.794 258.847 296.794C257.658 296.733 252.902 290.096 251.357 286.348C249.811 282.6 246.958 279.404 245.887 280.326C245.471 280.695 245.115 281.555 245.115 282.293C245.115 283.767 243.628 286.225 242.023 287.454C241.429 287.884 240.953 288.499 240.953 288.806C240.953 289.113 240.24 290.404 239.408 291.694C238.575 292.985 237.743 294.767 237.565 295.688C237.386 296.671 236.732 297.47 235.959 297.655C235.305 297.9 233.641 299.744 232.392 301.894C231.085 303.984 228.35 307.302 226.269 309.268C224.188 311.235 222.524 313.262 222.524 313.754C222.524 314.246 222.048 314.799 221.513 315.044C219.73 315.72 215.984 318.977 215.984 319.837C215.984 320.82 213.012 323.156 212.12 322.848C211.823 322.725 209.98 324.077 208.137 325.859C205.046 328.87 202.965 330.283 200.528 331.205C198.209 332.065 193.394 335.199 193.394 335.814C193.394 336.613 192.205 337.227 186.557 339.132C181.742 340.73 177.342 342.819 177.342 343.495C177.342 343.802 175.797 344.355 173.954 344.724C172.052 345.092 169.198 345.768 167.533 346.26C165.928 346.752 162.302 347.55 159.508 348.103C156.714 348.656 154.157 349.455 153.86 349.885C152.374 351.852 129.902 352.835 114.386 351.606ZM148.331 291.817C150.65 291.325 151.839 290.772 152.077 290.035C152.433 288.867 152.909 288.683 159.983 286.348C162.54 285.488 165.096 284.197 166.285 283.03C169.079 280.388 172.646 277.745 173.419 277.745C173.835 277.745 174.548 276.947 175.143 275.963C175.678 274.98 177.045 273.383 178.115 272.399C179.185 271.416 180.255 270.187 180.493 269.696C180.731 269.204 181.861 267.606 182.99 266.07C184.12 264.534 185.428 262.752 185.903 262.076C186.379 261.4 187.568 258.512 188.578 255.686C189.53 252.859 190.897 250.217 191.491 249.725C192.383 249.111 192.859 247.636 193.334 244.441C193.691 241.983 194.286 238.111 194.642 235.899C195.296 231.414 195.475 213.532 194.821 212.488C194.583 212.119 194.167 209.415 193.929 206.527C193.394 200.812 191.967 196.45 189.886 194.545C189.232 193.869 188.638 192.947 188.638 192.456C188.638 190.243 186.973 186.802 183.882 182.624C182.098 180.104 180.018 177.155 179.304 176.049C178.591 174.943 177.164 173.407 176.154 172.669C175.143 171.932 173.181 170.15 171.814 168.675C170.446 167.262 167.771 165.296 165.928 164.374C164.026 163.391 162.48 162.407 162.48 162.162C162.48 161.363 159.032 159.642 154.455 158.106C138.879 152.822 113.613 153.559 99.1668 159.642C96.4915 160.81 96.3727 160.871 93.5191 163.452C92.3895 164.435 91.0222 165.296 90.4277 165.296C89.1793 165.296 85.3745 168.614 84.8989 170.15C84.7206 170.764 83.8289 171.625 82.9371 172.055C80.3808 173.407 79.3702 174.513 78.0028 177.401C77.2894 178.937 76.3383 180.289 75.9221 180.473C75.4465 180.658 75.0898 181.149 75.0898 181.641C75.0898 182.132 74.9115 182.501 74.6737 182.501C73.3658 182.501 69.9772 189.936 68.5504 195.897C68.1937 197.371 67.5398 198.477 67.0642 198.477C65.1024 198.477 63.5567 208.985 63.5567 223.057C63.4972 237.251 64.5079 245.547 66.5291 247.329C67.4209 248.127 68.3126 250.032 68.9071 252.552C70.2744 258.082 72.3552 262.752 73.8414 263.612C74.5548 263.981 74.9709 264.534 74.7926 264.903C74.5548 265.21 75.1493 266.5 76.1005 267.729C78.8351 271.355 87.5742 280.203 89.4171 281.125C90.3683 281.678 91.3789 282.538 91.6762 283.153C91.9734 283.767 93.1624 284.566 94.2325 284.935C100.059 286.901 104.517 288.867 105.468 289.912C106.182 290.772 107.965 291.325 111.473 291.817C114.207 292.186 117.239 292.616 118.191 292.739C121.698 293.23 145.002 292.554 148.331 291.817Z" fill="#FDFDFD" stroke="#16BC71" stroke-width="2.26462" mask="url(#path-1-inside-1_452_1449)"/>
<mask id="path-2-inside-2_452_1449" fill="white">
<path d="M514.419 350.315C514.419 349.639 511.506 348.656 507.88 348.103C504.729 347.611 492.483 344.969 489.332 344.109C488.083 343.74 487.073 343.187 487.073 342.818C487.073 342.45 486.835 342.388 486.478 342.573C486.181 342.757 485.884 342.634 485.884 342.265C485.884 341.835 485.527 341.651 485.051 341.835C484.576 342.02 484.1 341.958 483.981 341.712C483.862 341.467 481.187 340.238 478.036 338.947C474.826 337.657 472.21 336.366 472.21 336.059C472.21 335.691 471.973 335.629 471.616 335.813C471.319 335.998 471.021 335.875 471.021 335.506C471.021 335.137 470.784 334.953 470.486 335.199C470.13 335.383 469.714 335.137 469.416 334.707C469.179 334.277 467.217 332.802 465.077 331.512C462.817 330.16 458.775 326.658 455.446 323.155C450.69 318.178 449.501 316.58 448.787 314.061C448.312 312.402 447.301 310.128 446.528 309.083C445.339 307.424 445.102 306.195 444.864 300.727C444.685 297.224 444.745 294.336 444.923 294.336C445.637 294.336 446.528 291.448 446.053 290.649C445.399 289.604 444.507 290.28 442.724 293.168C441 296.057 439.216 296.487 439.93 293.906C440.465 291.939 440.524 273.259 440.048 267.545C439.811 265.21 439.276 263.12 438.503 262.014C437.849 261.031 436.838 258.573 436.303 256.545C435.768 254.518 435.055 252.306 434.757 251.63C434.46 250.954 433.687 249.11 433.033 247.513C432.32 245.976 431.607 244.563 431.309 244.44C431.072 244.379 429.288 242.044 427.326 239.34C423.522 233.933 414.842 224.9 413.475 224.9C412.999 224.9 411.632 223.794 410.383 222.503C409.135 221.151 406.281 219.185 404.022 218.079C401.823 217.034 399.801 215.805 399.563 215.437C399.266 215.068 399.088 215.007 399.088 215.375C399.088 215.744 398.791 215.498 398.434 214.884C398.077 214.331 397.602 213.962 397.245 214.146C396.948 214.392 396.71 214.208 396.71 213.839C396.71 213.47 396.472 213.347 396.115 213.532C395.818 213.716 395.521 213.655 395.521 213.409C395.521 212.733 390.23 209.968 386.425 208.616C384.82 208.001 383.096 207.08 382.561 206.527C381.194 205.175 379.648 204.499 372.574 202.225C369.185 201.119 365.796 199.645 364.845 198.784C363.894 197.924 360.862 196.511 358.068 195.65C351.35 193.623 349.745 192.947 349.745 192.148C349.745 191.779 349.567 191.656 349.388 191.902C349.21 192.086 348.497 191.718 347.843 191.103C347.189 190.489 346 189.813 345.167 189.567C344.335 189.383 342.552 188.707 341.184 188.031C339.876 187.416 338.152 186.74 337.439 186.495C336.726 186.31 335.121 185.02 333.872 183.607C332.624 182.255 330.9 180.411 330.008 179.49C328.106 177.523 326.619 173.038 326.976 170.211C327.273 167.937 328.938 164.189 330.84 161.67C332.564 159.335 334.942 158.106 339.936 157.061C351.588 154.542 364.964 157.061 370.196 162.776C371.206 163.82 372.455 164.681 373.049 164.681C373.584 164.681 375.903 166.278 378.102 168.245C382.442 172.054 383.631 172.669 389.457 174.144C394.272 175.373 400.277 175.373 405.449 174.205C411.216 172.853 412.702 172.116 415.02 169.474C416.09 168.245 417.458 167.016 417.993 166.831C419.063 166.524 423.878 159.335 423.581 158.474C423.522 158.167 423.7 157.921 424.057 157.921C425.899 157.921 427.505 147.291 426.494 141.638C426.137 139.671 425.959 137.889 426.137 137.643C426.435 137.152 429.704 139.917 432.558 143.112C433.628 144.28 435.59 146.431 436.957 147.844C438.324 149.257 439.989 151.531 440.583 152.821C442.426 156.508 447.123 162.837 448.074 162.837C449.025 162.837 449.62 161.547 449.62 159.58C449.62 158.351 451.522 153.743 453.603 149.933C454.078 149.073 454.97 147.168 455.684 145.632C458.062 140.286 466.682 129.778 470.962 127.074C472.151 126.337 474.469 124.555 476.134 123.203C477.799 121.79 480.414 120.254 482.02 119.824C483.625 119.393 485.408 118.472 486.003 117.857C486.597 117.243 487.489 116.751 488.024 116.751C488.559 116.751 489.629 116.198 490.402 115.584C492.066 114.232 500.27 112.143 506.394 111.467C508.712 111.221 510.674 110.791 510.912 110.545C512.339 108.148 541.944 108.21 543.549 110.545C543.728 110.791 546.284 111.344 549.316 111.774C556.153 112.757 560.433 113.863 562.454 115.338C564 116.382 564.297 116.505 565.427 116.69C565.724 116.69 566.556 117.304 567.329 117.98C568.102 118.656 569.113 119.209 569.588 119.209C571.134 119.209 576.484 122.343 579.041 124.801C580.408 126.091 581.775 127.197 582.073 127.197C582.31 127.197 584.748 129.409 587.423 132.113C590.039 134.817 592.06 137.029 591.822 137.029C591.644 137.029 592.06 137.459 592.773 138.012C593.487 138.504 594.081 139.61 594.081 140.409C594.081 141.207 594.319 142.006 594.616 142.191C594.914 142.436 595.33 143.973 595.568 145.632C595.865 147.721 596.34 148.95 597.113 149.38C598.005 149.872 598.243 150.67 598.243 153.313C598.243 155.832 598.005 156.692 597.41 156.692C596.459 156.692 596.162 157.491 595.568 161.547C595.033 165.111 593.725 168.122 592.655 168.552C592.119 168.798 591.882 169.351 592.06 169.904C592.238 170.395 592.119 170.825 591.822 170.825C591.049 170.825 583.38 176.663 582.37 178.015C581.359 179.305 574.344 180.166 567.924 179.674C561.622 179.244 560.849 178.937 557.877 175.864C556.688 174.697 554.666 173.283 553.359 172.669C552.051 172.054 549.851 170.457 548.484 169.105C545.809 166.463 541.766 164.619 535.94 163.39C533.919 162.96 532.254 162.407 532.254 162.161C532.254 161.67 524.288 161.854 522.742 162.407C522.267 162.591 519.591 163.206 516.797 163.82C512.576 164.804 511.447 165.357 509.901 167.016C506.869 170.334 505.859 176.479 507.345 182.193C507.939 184.528 511.09 188.645 512.22 188.645C512.695 188.645 517.986 192.271 518.581 193.008C519.175 193.807 522.504 195.22 525.239 195.958C527.855 196.572 532.195 198.784 532.849 199.829C533.265 200.382 537.426 201.98 541.647 203.147C544.798 204.007 550.743 206.834 551.278 207.756C551.456 208.001 553.656 208.923 556.093 209.722C561.028 211.443 566.735 214.208 566.735 214.945C566.735 215.191 569.113 216.481 572.026 217.772C575.652 219.308 577.911 220.721 579.1 222.196C580.051 223.363 581.775 224.592 582.845 225.023C584.569 225.576 588.077 228.525 593.903 234.24C594.676 234.916 595.092 235.715 594.914 236.022C594.735 236.329 595.449 237.066 596.459 237.742C598.54 239.033 600.799 242.167 601.453 244.563C602.107 246.837 604.782 251.937 606.031 253.227C607.339 254.579 607.517 255.255 608.646 264.411C609.776 273.689 609.776 283.03 608.587 292.615C607.636 300.481 606.803 304.168 605.971 304.168C605.496 304.168 604.247 306.564 601.572 312.955C600.74 314.86 599.788 316.457 599.432 316.457C599.075 316.457 598.956 316.765 599.134 317.072C599.313 317.44 599.194 317.686 598.897 317.686C598.54 317.686 597.232 319.284 596.043 321.25C594.795 323.155 593.546 324.876 593.19 324.999C592.892 325.121 591.228 326.658 589.504 328.44C587.78 330.16 585.64 332.004 584.748 332.495C583.856 332.987 582.251 334.277 581.121 335.383C580.051 336.551 577.614 338.026 575.83 338.701C571.55 340.238 566.735 342.757 566.735 343.433C566.735 344.047 552.764 347.55 548.008 348.103C544.144 348.533 541.172 349.455 541.172 350.315C541.172 350.622 535.167 350.868 527.795 350.868C520.008 350.868 514.419 350.622 514.419 350.315ZM531.065 298.023C531.065 297.716 531.779 297.408 532.67 297.408C535.048 297.408 543.847 294.459 544.738 293.414C545.155 292.923 545.868 292.493 546.284 292.493C546.76 292.493 547.116 292.247 547.116 291.939C547.116 291.632 547.592 291.202 548.187 291.018C550.743 290.158 552.11 279.834 550.505 274.12C549.792 271.785 547.651 269.204 546.344 269.142C546.106 269.142 544.917 268.098 543.668 266.807C542.004 265.025 540.101 263.919 535.999 262.444C532.968 261.277 530.471 260.109 530.471 259.741C530.471 259.372 530.292 259.249 530.114 259.495C529.936 259.679 529.222 259.372 528.568 258.696C527.914 258.082 524.942 256.791 521.91 255.747C518.878 254.763 515.846 253.473 515.192 252.859C513.825 251.691 507.285 248.803 503.302 247.697C501.935 247.328 500.389 246.591 499.973 246.099C499.498 245.608 498.963 245.423 498.725 245.608C498.546 245.853 498.368 245.669 498.368 245.239C498.368 244.809 498.13 244.624 497.833 244.809C497.536 245.055 497.179 244.993 497.06 244.686C496.763 243.887 491.115 240.692 488.143 239.647C486.597 239.094 484.516 237.804 483.506 236.759C482.495 235.715 480.296 234.117 478.69 233.195C477.085 232.335 475.123 230.983 474.41 230.246C471.675 227.481 468.406 224.9 467.692 224.9C467.336 224.9 466.801 224.47 466.622 223.917C465.968 222.135 464.244 223.241 464.125 225.514C463.947 229.754 462.639 243.703 462.104 246.714C461.807 248.434 461.391 251.261 461.212 253.043C460.975 254.948 460.499 256.238 460.083 256.238C459.31 256.238 457.943 260.048 457.943 262.076C457.943 262.629 457.289 265.21 456.397 267.79C455.565 270.433 454.613 273.444 454.257 274.611C453.96 275.717 452.771 277.499 451.641 278.482C450.393 279.65 449.62 280.879 449.62 281.801C449.62 283.275 449.679 283.275 451.284 282.415C452.176 281.923 453.365 281.002 453.96 280.326C454.554 279.65 455.921 278.728 456.932 278.298C458.002 277.868 459.607 276.885 460.499 276.086C462.877 274.12 466.444 273.321 471.794 273.567C475.183 273.689 476.669 274.058 477.145 274.734C477.561 275.287 478.215 275.594 478.631 275.471C478.988 275.287 479.344 275.471 479.344 275.902C479.344 276.27 479.642 276.393 479.939 276.209C480.296 276.024 480.533 276.086 480.533 276.455C480.533 276.762 481.484 277.376 482.673 277.745C483.862 278.175 486.181 279.834 487.905 281.493C489.57 283.091 492.304 285.057 493.909 285.856C496.822 287.208 498.963 289.051 498.963 290.158C498.963 290.465 499.26 290.526 499.557 290.342C499.914 290.158 500.152 290.219 500.152 290.588C500.152 290.956 501.697 291.694 503.6 292.247C505.443 292.738 509.247 294.029 512.041 295.073C515.489 296.364 518.521 297.04 521.851 297.224C524.466 297.408 526.844 297.777 527.201 298.084C527.914 298.822 531.065 298.76 531.065 298.023Z"/>
</mask>
<path d="M514.419 350.315C514.419 349.639 511.506 348.656 507.88 348.103C504.729 347.611 492.483 344.969 489.332 344.109C488.083 343.74 487.073 343.187 487.073 342.818C487.073 342.45 486.835 342.388 486.478 342.573C486.181 342.757 485.884 342.634 485.884 342.265C485.884 341.835 485.527 341.651 485.051 341.835C484.576 342.02 484.1 341.958 483.981 341.712C483.862 341.467 481.187 340.238 478.036 338.947C474.826 337.657 472.21 336.366 472.21 336.059C472.21 335.691 471.973 335.629 471.616 335.813C471.319 335.998 471.021 335.875 471.021 335.506C471.021 335.137 470.784 334.953 470.486 335.199C470.13 335.383 469.714 335.137 469.416 334.707C469.179 334.277 467.217 332.802 465.077 331.512C462.817 330.16 458.775 326.658 455.446 323.155C450.69 318.178 449.501 316.58 448.787 314.061C448.312 312.402 447.301 310.128 446.528 309.083C445.339 307.424 445.102 306.195 444.864 300.727C444.685 297.224 444.745 294.336 444.923 294.336C445.637 294.336 446.528 291.448 446.053 290.649C445.399 289.604 444.507 290.28 442.724 293.168C441 296.057 439.216 296.487 439.93 293.906C440.465 291.939 440.524 273.259 440.048 267.545C439.811 265.21 439.276 263.12 438.503 262.014C437.849 261.031 436.838 258.573 436.303 256.545C435.768 254.518 435.055 252.306 434.757 251.63C434.46 250.954 433.687 249.11 433.033 247.513C432.32 245.976 431.607 244.563 431.309 244.44C431.072 244.379 429.288 242.044 427.326 239.34C423.522 233.933 414.842 224.9 413.475 224.9C412.999 224.9 411.632 223.794 410.383 222.503C409.135 221.151 406.281 219.185 404.022 218.079C401.823 217.034 399.801 215.805 399.563 215.437C399.266 215.068 399.088 215.007 399.088 215.375C399.088 215.744 398.791 215.498 398.434 214.884C398.077 214.331 397.602 213.962 397.245 214.146C396.948 214.392 396.71 214.208 396.71 213.839C396.71 213.47 396.472 213.347 396.115 213.532C395.818 213.716 395.521 213.655 395.521 213.409C395.521 212.733 390.23 209.968 386.425 208.616C384.82 208.001 383.096 207.08 382.561 206.527C381.194 205.175 379.648 204.499 372.574 202.225C369.185 201.119 365.796 199.645 364.845 198.784C363.894 197.924 360.862 196.511 358.068 195.65C351.35 193.623 349.745 192.947 349.745 192.148C349.745 191.779 349.567 191.656 349.388 191.902C349.21 192.086 348.497 191.718 347.843 191.103C347.189 190.489 346 189.813 345.167 189.567C344.335 189.383 342.552 188.707 341.184 188.031C339.876 187.416 338.152 186.74 337.439 186.495C336.726 186.31 335.121 185.02 333.872 183.607C332.624 182.255 330.9 180.411 330.008 179.49C328.106 177.523 326.619 173.038 326.976 170.211C327.273 167.937 328.938 164.189 330.84 161.67C332.564 159.335 334.942 158.106 339.936 157.061C351.588 154.542 364.964 157.061 370.196 162.776C371.206 163.82 372.455 164.681 373.049 164.681C373.584 164.681 375.903 166.278 378.102 168.245C382.442 172.054 383.631 172.669 389.457 174.144C394.272 175.373 400.277 175.373 405.449 174.205C411.216 172.853 412.702 172.116 415.02 169.474C416.09 168.245 417.458 167.016 417.993 166.831C419.063 166.524 423.878 159.335 423.581 158.474C423.522 158.167 423.7 157.921 424.057 157.921C425.899 157.921 427.505 147.291 426.494 141.638C426.137 139.671 425.959 137.889 426.137 137.643C426.435 137.152 429.704 139.917 432.558 143.112C433.628 144.28 435.59 146.431 436.957 147.844C438.324 149.257 439.989 151.531 440.583 152.821C442.426 156.508 447.123 162.837 448.074 162.837C449.025 162.837 449.62 161.547 449.62 159.58C449.62 158.351 451.522 153.743 453.603 149.933C454.078 149.073 454.97 147.168 455.684 145.632C458.062 140.286 466.682 129.778 470.962 127.074C472.151 126.337 474.469 124.555 476.134 123.203C477.799 121.79 480.414 120.254 482.02 119.824C483.625 119.393 485.408 118.472 486.003 117.857C486.597 117.243 487.489 116.751 488.024 116.751C488.559 116.751 489.629 116.198 490.402 115.584C492.066 114.232 500.27 112.143 506.394 111.467C508.712 111.221 510.674 110.791 510.912 110.545C512.339 108.148 541.944 108.21 543.549 110.545C543.728 110.791 546.284 111.344 549.316 111.774C556.153 112.757 560.433 113.863 562.454 115.338C564 116.382 564.297 116.505 565.427 116.69C565.724 116.69 566.556 117.304 567.329 117.98C568.102 118.656 569.113 119.209 569.588 119.209C571.134 119.209 576.484 122.343 579.041 124.801C580.408 126.091 581.775 127.197 582.073 127.197C582.31 127.197 584.748 129.409 587.423 132.113C590.039 134.817 592.06 137.029 591.822 137.029C591.644 137.029 592.06 137.459 592.773 138.012C593.487 138.504 594.081 139.61 594.081 140.409C594.081 141.207 594.319 142.006 594.616 142.191C594.914 142.436 595.33 143.973 595.568 145.632C595.865 147.721 596.34 148.95 597.113 149.38C598.005 149.872 598.243 150.67 598.243 153.313C598.243 155.832 598.005 156.692 597.41 156.692C596.459 156.692 596.162 157.491 595.568 161.547C595.033 165.111 593.725 168.122 592.655 168.552C592.119 168.798 591.882 169.351 592.06 169.904C592.238 170.395 592.119 170.825 591.822 170.825C591.049 170.825 583.38 176.663 582.37 178.015C581.359 179.305 574.344 180.166 567.924 179.674C561.622 179.244 560.849 178.937 557.877 175.864C556.688 174.697 554.666 173.283 553.359 172.669C552.051 172.054 549.851 170.457 548.484 169.105C545.809 166.463 541.766 164.619 535.94 163.39C533.919 162.96 532.254 162.407 532.254 162.161C532.254 161.67 524.288 161.854 522.742 162.407C522.267 162.591 519.591 163.206 516.797 163.82C512.576 164.804 511.447 165.357 509.901 167.016C506.869 170.334 505.859 176.479 507.345 182.193C507.939 184.528 511.09 188.645 512.22 188.645C512.695 188.645 517.986 192.271 518.581 193.008C519.175 193.807 522.504 195.22 525.239 195.958C527.855 196.572 532.195 198.784 532.849 199.829C533.265 200.382 537.426 201.98 541.647 203.147C544.798 204.007 550.743 206.834 551.278 207.756C551.456 208.001 553.656 208.923 556.093 209.722C561.028 211.443 566.735 214.208 566.735 214.945C566.735 215.191 569.113 216.481 572.026 217.772C575.652 219.308 577.911 220.721 579.1 222.196C580.051 223.363 581.775 224.592 582.845 225.023C584.569 225.576 588.077 228.525 593.903 234.24C594.676 234.916 595.092 235.715 594.914 236.022C594.735 236.329 595.449 237.066 596.459 237.742C598.54 239.033 600.799 242.167 601.453 244.563C602.107 246.837 604.782 251.937 606.031 253.227C607.339 254.579 607.517 255.255 608.646 264.411C609.776 273.689 609.776 283.03 608.587 292.615C607.636 300.481 606.803 304.168 605.971 304.168C605.496 304.168 604.247 306.564 601.572 312.955C600.74 314.86 599.788 316.457 599.432 316.457C599.075 316.457 598.956 316.765 599.134 317.072C599.313 317.44 599.194 317.686 598.897 317.686C598.54 317.686 597.232 319.284 596.043 321.25C594.795 323.155 593.546 324.876 593.19 324.999C592.892 325.121 591.228 326.658 589.504 328.44C587.78 330.16 585.64 332.004 584.748 332.495C583.856 332.987 582.251 334.277 581.121 335.383C580.051 336.551 577.614 338.026 575.83 338.701C571.55 340.238 566.735 342.757 566.735 343.433C566.735 344.047 552.764 347.55 548.008 348.103C544.144 348.533 541.172 349.455 541.172 350.315C541.172 350.622 535.167 350.868 527.795 350.868C520.008 350.868 514.419 350.622 514.419 350.315ZM531.065 298.023C531.065 297.716 531.779 297.408 532.67 297.408C535.048 297.408 543.847 294.459 544.738 293.414C545.155 292.923 545.868 292.493 546.284 292.493C546.76 292.493 547.116 292.247 547.116 291.939C547.116 291.632 547.592 291.202 548.187 291.018C550.743 290.158 552.11 279.834 550.505 274.12C549.792 271.785 547.651 269.204 546.344 269.142C546.106 269.142 544.917 268.098 543.668 266.807C542.004 265.025 540.101 263.919 535.999 262.444C532.968 261.277 530.471 260.109 530.471 259.741C530.471 259.372 530.292 259.249 530.114 259.495C529.936 259.679 529.222 259.372 528.568 258.696C527.914 258.082 524.942 256.791 521.91 255.747C518.878 254.763 515.846 253.473 515.192 252.859C513.825 251.691 507.285 248.803 503.302 247.697C501.935 247.328 500.389 246.591 499.973 246.099C499.498 245.608 498.963 245.423 498.725 245.608C498.546 245.853 498.368 245.669 498.368 245.239C498.368 244.809 498.13 244.624 497.833 244.809C497.536 245.055 497.179 244.993 497.06 244.686C496.763 243.887 491.115 240.692 488.143 239.647C486.597 239.094 484.516 237.804 483.506 236.759C482.495 235.715 480.296 234.117 478.69 233.195C477.085 232.335 475.123 230.983 474.41 230.246C471.675 227.481 468.406 224.9 467.692 224.9C467.336 224.9 466.801 224.47 466.622 223.917C465.968 222.135 464.244 223.241 464.125 225.514C463.947 229.754 462.639 243.703 462.104 246.714C461.807 248.434 461.391 251.261 461.212 253.043C460.975 254.948 460.499 256.238 460.083 256.238C459.31 256.238 457.943 260.048 457.943 262.076C457.943 262.629 457.289 265.21 456.397 267.79C455.565 270.433 454.613 273.444 454.257 274.611C453.96 275.717 452.771 277.499 451.641 278.482C450.393 279.65 449.62 280.879 449.62 281.801C449.62 283.275 449.679 283.275 451.284 282.415C452.176 281.923 453.365 281.002 453.96 280.326C454.554 279.65 455.921 278.728 456.932 278.298C458.002 277.868 459.607 276.885 460.499 276.086C462.877 274.12 466.444 273.321 471.794 273.567C475.183 273.689 476.669 274.058 477.145 274.734C477.561 275.287 478.215 275.594 478.631 275.471C478.988 275.287 479.344 275.471 479.344 275.902C479.344 276.27 479.642 276.393 479.939 276.209C480.296 276.024 480.533 276.086 480.533 276.455C480.533 276.762 481.484 277.376 482.673 277.745C483.862 278.175 486.181 279.834 487.905 281.493C489.57 283.091 492.304 285.057 493.909 285.856C496.822 287.208 498.963 289.051 498.963 290.158C498.963 290.465 499.26 290.526 499.557 290.342C499.914 290.158 500.152 290.219 500.152 290.588C500.152 290.956 501.697 291.694 503.6 292.247C505.443 292.738 509.247 294.029 512.041 295.073C515.489 296.364 518.521 297.04 521.851 297.224C524.466 297.408 526.844 297.777 527.201 298.084C527.914 298.822 531.065 298.76 531.065 298.023Z" fill="#FDFDFD" stroke="#16BC71" stroke-width="2.26462" mask="url(#path-2-inside-2_452_1449)"/>
<path d="M32.6576 41.9052C32.7301 41.8438 32.7759 41.7776 32.8021 41.7348C32.837 41.6778 32.862 41.6208 32.8802 41.5733C32.9166 41.4785 32.9446 41.3708 32.9677 41.263C33.0145 41.0443 33.0555 40.754 33.0925 40.4062C33.1669 39.7066 33.2306 38.7171 33.2828 37.4764C33.3873 34.9919 33.4468 31.4652 33.4468 27.16C33.4468 20.7479 33.4175 17.1891 33.252 15.0119C33.1689 13.9195 33.05 13.1477 32.8737 12.5236C32.6949 11.8904 32.4626 11.4295 32.1791 10.957C31.7203 10.1672 31.2691 9.57555 30.7142 9.19006C30.1391 8.7905 29.5101 8.65105 28.7786 8.65105C28.2485 8.65105 27.7203 8.7358 27.291 8.89294C27.0767 8.97138 26.8677 9.0749 26.6929 9.21045C26.5248 9.34075 26.3519 9.5296 26.2757 9.78758C26.2743 9.79175 26.273 9.79547 26.2717 9.79876C26.2565 9.80106 26.2333 9.8032 26.2 9.8032C25.9633 9.8032 25.5332 9.70186 24.7584 9.42509C23.6223 8.97069 21.8936 8.65105 20.8719 8.65105C19.9382 8.65105 18.5049 8.1784 17.2019 7.50124C16.561 7.16818 15.9791 6.79963 15.5325 6.44214C15.0747 6.07559 14.8257 5.77275 14.7442 5.57809C14.7077 5.46247 14.7086 5.16881 14.8534 4.67603C14.9914 4.2062 15.2295 3.65681 15.5273 3.11447C15.8246 2.57291 16.1716 2.05663 16.5177 1.64932C16.8579 1.2489 17.1539 1.00567 17.3641 0.908401C17.3785 0.90613 17.4064 0.901922 17.4524 0.896693C17.5413 0.886579 17.6655 0.875821 17.8265 0.864736C18.1475 0.842634 18.5944 0.820569 19.1556 0.799049C20.2769 0.756052 21.8388 0.715809 23.7284 0.681274C27.5068 0.612219 32.5862 0.566154 38.0527 0.566154C47.6637 0.566154 52.6502 0.581788 55.4749 0.749503C56.8868 0.83333 57.7216 0.953579 58.3087 1.11598C58.8757 1.27282 59.2293 1.47334 59.6823 1.76596L59.6822 1.766L59.6885 1.76995C60.5096 2.28523 60.9141 2.64046 61.1379 3.01638C61.3549 3.38093 61.4446 3.83756 61.4446 4.67005C61.4446 5.55201 61.3633 5.9425 61.1412 6.25373C60.8959 6.59743 60.4239 6.92637 59.3699 7.48682C57.6019 8.39994 56.1203 8.65105 51.0126 8.65105C48.6613 8.65105 46.9972 8.71223 45.8312 8.85495C44.6993 8.9935 43.9046 9.22039 43.4316 9.66489L43.4218 9.67413L43.4124 9.68382C43.2434 9.85849 43.129 10.0844 43.0431 10.3349C42.9562 10.5882 42.8865 10.9023 42.8277 11.286C42.7102 12.0529 42.6258 13.1703 42.5625 14.7868C42.4357 18.0252 42.3911 23.3517 42.3614 32.0739V32.0742L42.3612 32.1381C42.3316 42.3067 42.3163 47.5551 42.1542 50.5566C42.073 52.0588 41.9563 52.9654 41.7926 53.6297C41.6326 54.2789 41.4237 54.7148 41.1205 55.2819C40.3897 56.6475 39.5526 57.315 38.734 57.4831C37.9225 57.6496 36.9524 57.3607 35.8691 56.4133C35.5275 56.1145 35.2059 55.7275 34.9728 55.3558C34.723 54.9574 34.6358 54.6736 34.6358 54.5659C34.6358 54.2164 34.5622 53.8381 34.4321 53.5114C34.3215 53.2339 34.1323 52.8994 33.8246 52.7014C33.8133 52.6811 33.798 52.6502 33.7798 52.6064C33.7275 52.4803 33.6712 52.2948 33.6197 52.0572C33.5173 51.5845 33.4468 50.9642 33.4468 50.3259C33.4468 49.6525 33.3853 49.0067 33.268 48.5129C33.2104 48.2706 33.1315 48.0302 33.0182 47.8366C32.9472 47.7153 32.8028 47.5128 32.5657 47.4169C32.525 47.3155 32.4775 47.155 32.4321 46.9328C32.3298 46.4323 32.2578 45.7186 32.2578 44.9185C32.2578 44.0876 32.3298 43.3072 32.4347 42.7217C32.4875 42.4273 32.5459 42.197 32.6016 42.0398C32.6249 41.974 32.6443 41.9306 32.6576 41.9052ZM26.2615 9.82105C26.2615 9.82103 26.2617 9.82062 26.2622 9.81989L26.2615 9.82105ZM32.6681 41.8865C32.6705 41.8827 32.6718 41.8809 32.6719 41.881C32.672 41.881 32.6708 41.883 32.6681 41.8865Z" fill="#FDFDFD" stroke="#16BC71" stroke-width="1.13231"/>
<path d="M78.2564 57.0264L78.2443 57.0121L78.2312 56.9986C77.9531 56.7111 77.5576 56.5327 77.1739 56.4478C76.7893 56.3626 76.3517 56.3564 75.9479 56.4781C75.503 56.5886 75.1057 56.4102 74.8693 56.0078C74.741 55.7751 74.5035 55.5372 74.2581 55.323C73.992 55.0906 73.6543 54.8337 73.2718 54.5687C72.5073 54.0393 71.5353 53.4586 70.5336 52.9563C68.0059 51.6191 66.3316 50.4181 65.1694 48.9925C64.0139 47.5751 63.3283 45.8905 62.8636 43.519L62.8637 43.519L62.8628 43.5149C62.7382 42.9032 62.5378 42.1871 62.3074 41.5284C62.0819 40.8836 61.8141 40.2537 61.5414 39.8279C61.3421 39.4898 61.1073 38.8884 60.8975 38.163C60.689 37.4422 60.5176 36.6428 60.4327 35.9403L60.4328 35.9403L60.4315 35.9308C60.2832 34.8583 60.2523 34.2011 60.3455 33.7C60.4322 33.2338 60.6342 32.8652 61.0621 32.3954L61.0622 32.3954L61.0686 32.3881C61.4395 31.9664 61.8407 31.1422 62.1904 30.2269C62.5495 29.2872 62.8854 28.1676 63.1002 27.0903C63.4537 25.4467 63.7514 24.4586 64.2926 23.5169C64.8407 22.5632 65.6565 21.6249 67.1142 20.1183C68.5696 18.6139 69.5083 17.7381 70.5578 17.0872C71.6041 16.4383 72.7909 15.9946 74.7733 15.4135L74.7736 15.4134C77.5799 14.589 79.6161 14.1761 81.5813 14.1613C83.5415 14.1466 85.4692 14.5279 88.0558 15.3481C89.7637 15.896 90.8999 16.3551 91.9548 17.0166C93.0129 17.6801 94.0164 18.5642 95.4347 19.9996L95.4377 20.0027C97.121 21.6804 97.9085 22.5052 98.4017 23.4759C98.896 24.4488 99.1087 25.5953 99.4995 27.9884C100.003 31.1125 100.09 33.2652 99.7798 34.7062C99.6267 35.4164 99.3827 35.925 99.0688 36.2903C98.7586 36.6513 98.3523 36.905 97.8172 37.063L97.8104 37.065L97.8036 37.0672C97.7375 37.0886 97.5823 37.1209 97.3132 37.1568C97.0552 37.1911 96.7233 37.225 96.3243 37.2577C95.527 37.3231 94.4803 37.3822 93.2581 37.432C90.8147 37.5315 87.6865 37.5928 84.4826 37.5928C79.6118 37.5928 76.6179 37.6387 74.7428 37.7788C73.8062 37.8487 73.1214 37.9439 72.6099 38.078C72.0935 38.2133 71.7155 38.3979 71.4291 38.6711L71.4159 38.6837L71.4036 38.6971C70.8261 39.3239 70.3344 39.931 70.4737 40.771C70.5369 41.1518 70.7222 41.528 70.9742 41.9247C71.2286 42.3254 71.5826 42.7945 72.0284 43.3628L72.0283 43.3629L72.0351 43.3712C75.7308 47.9034 82.8439 49.3212 89.254 46.9865L89.2545 46.9862C92.1869 45.9147 94.1626 45.6229 95.5003 45.9938C96.7524 46.341 97.576 47.3153 98.0841 49.2412L98.084 49.2412L98.0873 49.2528C98.1816 49.5817 98.1829 49.8569 98.1045 50.1155C98.0242 50.3806 97.8458 50.6753 97.5042 51.0149C96.8046 51.7101 95.5299 52.4898 93.4492 53.5036L93.4463 53.5051C92.7215 53.8634 91.9604 54.3621 91.3191 54.8653C90.6972 55.3531 90.1355 55.8859 89.8421 56.3338C89.7899 56.4054 89.7407 56.4702 89.6947 56.5284C89.6243 56.4298 89.539 56.3422 89.4408 56.2672C89.1551 56.0492 88.8014 55.9682 88.4714 55.9736C87.8338 55.9839 87.1125 56.3184 86.6999 56.9929C86.6959 56.9953 86.6912 56.9981 86.6856 57.0013C86.6388 57.0278 86.561 57.0622 86.4446 57.1002C86.2121 57.176 85.8858 57.2469 85.4816 57.3076C84.6772 57.4284 83.6346 57.4984 82.5742 57.5097C81.5138 57.5211 80.4566 57.4735 79.6229 57.3656C79.2046 57.3114 78.8585 57.244 78.6023 57.1673C78.3739 57.0989 78.2829 57.0417 78.2608 57.0278C78.255 57.0242 78.254 57.0235 78.2564 57.0264ZM90.4705 31.545L90.4798 31.538L90.4888 31.5306C90.841 31.2424 91.1819 30.9405 91.3836 30.5817C91.614 30.172 91.6401 29.7381 91.486 29.2655C91.3447 28.8325 91.0489 28.3546 90.6368 27.7935C90.2181 27.2234 89.6426 26.5195 88.9005 25.6297L88.9002 25.6293C87.7685 24.2749 86.9365 23.4047 86.0831 22.8335C85.208 22.2477 84.3458 21.9991 83.2089 21.8085L83.2089 21.8083L83.1955 21.8064C79.1747 21.231 75.1481 22.5636 72.917 25.4625C71.7516 26.976 71.0052 28.2206 70.7442 29.2302C70.611 29.7453 70.5928 30.2414 70.7488 30.6934C70.9079 31.1545 71.2258 31.5046 71.6431 31.7596C71.8154 31.8651 72.0337 31.9387 72.25 31.9953C72.4763 32.0545 72.7445 32.106 73.0427 32.1512C73.6397 32.2419 74.3917 32.3128 75.2389 32.3661C76.9355 32.4728 79.0513 32.5113 81.1523 32.4881C83.2532 32.465 85.3505 32.3801 87.01 32.2384C87.8385 32.1677 88.568 32.0819 89.1382 31.9804C89.4227 31.9297 89.6778 31.8734 89.8904 31.8097C90.0882 31.7506 90.305 31.6694 90.4705 31.545Z" fill="#FDFDFD" stroke="#16BC71" stroke-width="1.13231"/>
<path d="M111.413 26.4222C113.315 28.2041 115.515 28.8801 115.515 27.6511C115.515 27.3439 116.763 26.1764 118.309 25.1317M111.413 26.4222L115.396 34.0417C116.644 33.1814 118.666 32.8742 124.67 32.6284C133.587 32.1983 134.122 31.891 132.755 27.6511M111.413 26.4222C109.213 24.4558 108.916 22.5509 110.402 20.2159C112.007 17.6351 114.385 16.2218 119.676 14.8085C128.118 12.412 135.074 13.641 139.948 18.4339C142.802 21.1376 142.862 21.2605 143.515 26.4836M111.413 26.4222L120.568 57.8221M118.309 25.1317C120.746 23.3498 121.638 23.104 125.027 23.104M118.309 25.1317L117.992 24.6627C117.989 24.6646 117.986 24.6666 117.983 24.6686M118.309 25.1317L117.975 24.6747C117.978 24.6727 117.98 24.6706 117.983 24.6686M125.027 23.104C129.842 23.0425 131.626 24.0871 132.755 27.6511M125.027 23.104V22.5378C125.026 22.5378 125.024 22.5378 125.023 22.5378M125.027 23.104L125.02 22.5379C125.021 22.5378 125.022 22.5378 125.023 22.5378M132.755 27.6511L133.295 27.4801C133.295 27.4796 133.295 27.4791 133.294 27.4787M132.755 27.6511L133.294 27.4773C133.294 27.4778 133.294 27.4782 133.294 27.4787M133.294 27.4787C133.632 28.5252 133.886 29.4213 133.889 30.1545C133.891 30.5355 133.826 30.9025 133.651 31.2376C133.474 31.5761 133.206 31.842 132.865 32.0511C132.212 32.4513 131.242 32.6715 129.956 32.8275C128.649 32.9859 126.924 33.0865 124.697 33.1939L124.693 33.1941C121.691 33.317 119.712 33.4545 118.335 33.6643C116.961 33.8736 116.24 34.1474 115.717 34.5079L115.71 34.5127L115.703 34.5173C115.257 34.8055 114.874 35.1184 114.609 35.3852C114.476 35.5196 114.383 35.6315 114.328 35.7136C114.312 35.7382 114.301 35.7562 114.295 35.7682M133.294 27.4787C132.71 25.6343 131.92 24.3296 130.56 23.5299C129.23 22.7483 127.448 22.5071 125.023 22.5378M114.295 35.7682C114.269 36.0551 114.085 36.2584 113.971 36.3645C113.826 36.4991 113.642 36.6179 113.45 36.7214C113.061 36.9311 112.545 37.1289 111.985 37.2896L111.977 37.2921L111.968 37.2943C110.83 37.5818 109.94 38.3624 109.32 39.7292C108.691 41.1152 108.353 43.0824 108.353 45.6554C108.353 45.8061 108.352 45.9507 108.352 46.0895C108.35 48.1359 108.349 48.9431 108.898 49.8675C109.2 50.378 109.684 50.939 110.491 51.7327C111.154 52.3852 112.01 53.1712 113.125 54.1956C113.364 54.4144 113.614 54.6442 113.877 54.8858M114.295 35.7682C114.288 35.7805 114.286 35.7865 114.286 35.7865C114.286 35.7866 114.298 35.756 114.298 35.7008C114.298 35.7238 114.297 35.7462 114.295 35.7682ZM125.023 22.5378C123.331 22.5379 122.187 22.597 121.149 22.9071C120.103 23.2197 119.208 23.7737 117.983 24.6686M117.983 24.6686C117.194 25.2028 116.477 25.7702 115.951 26.2496C115.688 26.4891 115.463 26.7156 115.3 26.9117C115.218 27.0089 115.142 27.1105 115.083 27.2111C115.036 27.2908 114.949 27.4535 114.949 27.6511C114.949 27.671 114.947 27.6857 114.946 27.6963M114.946 27.6963C114.871 27.7174 114.679 27.7259 114.341 27.6238C113.66 27.4178 112.708 26.8594 111.8 26.009L111.8 26.0088L111.79 26.0001C110.743 25.0638 110.219 24.2044 110.084 23.3672C109.95 22.5362 110.182 21.6169 110.88 20.5199L110.88 20.5199L110.883 20.5149C112.372 18.1205 114.574 16.7573 119.822 15.3555L119.822 15.3555L119.831 15.3531C128.143 12.9935 134.865 14.2296 139.552 18.8376L139.551 18.8377L139.559 18.8449C141.008 20.2173 141.641 20.8455 142.039 21.7436C142.45 22.6702 142.622 23.9049 142.954 26.553M114.946 27.6963C114.944 27.7082 114.942 27.7147 114.942 27.7172M114.946 27.6963C114.95 27.6953 114.953 27.6942 114.956 27.6931C114.963 27.6909 114.965 27.6896 114.965 27.6897C114.965 27.6898 114.955 27.6954 114.946 27.7099C114.943 27.7133 114.942 27.7159 114.942 27.7172M142.954 26.553C143.305 29.4613 143.484 37.0454 143.366 43.3712L143.365 43.3731L143.191 54.7566M142.954 26.553C142.953 26.5525 142.953 26.552 142.953 26.5516L143.515 26.4836M142.954 26.553C142.954 26.5533 142.954 26.5536 142.954 26.5539L143.515 26.4836M143.191 54.7566L141.749 56.1919L141.749 56.1918L141.741 56.1995C140.737 57.237 139.872 57.5751 139.036 57.4399C138.15 57.2966 137.118 56.5996 135.862 55.1206L135.858 55.1165L133.837 52.7815L133.537 52.4343L133.135 52.6568L129.806 54.5002L129.801 54.503C128.866 55.0327 127.972 55.5961 127.284 56.0859C126.941 56.3301 126.641 56.562 126.41 56.7668C126.295 56.8691 126.19 56.9709 126.103 57.0693C126.027 57.1556 125.938 57.2693 125.88 57.4008M143.191 54.7566L143.354 54.5942L143.753 54.9955M143.191 54.7566L143.187 54.9868L143.753 54.9955M125.88 57.4008C125.819 57.5236 125.748 57.6202 125.69 57.6765M125.88 57.4008C125.881 57.3976 125.883 57.3944 125.884 57.3912L126.394 57.6378M125.88 57.4008C125.877 57.4075 125.874 57.4142 125.871 57.4209L126.394 57.6378M125.69 57.6765C125.653 57.6706 125.62 57.6661 125.594 57.6627L125.591 57.6624C125.497 57.65 125.376 57.6364 125.232 57.6218C124.943 57.5924 124.551 57.5575 124.085 57.519C123.154 57.442 121.919 57.3498 120.612 57.2576M125.69 57.6765C125.748 57.6858 125.812 57.6987 125.865 57.717L125.681 58.2522M125.69 57.6765C125.686 57.6806 125.682 57.6844 125.678 57.688C125.658 57.7064 125.647 57.7125 125.647 57.7126C125.647 57.7126 125.65 57.7113 125.655 57.7091C125.674 57.7014 125.737 57.682 125.822 57.7041L125.681 58.2522M120.612 57.2576C118.425 57.0718 117.27 56.9365 116.394 56.6276C115.552 56.3305 114.94 55.8624 113.877 54.8858M120.612 57.2576C120.61 57.2575 120.609 57.2574 120.608 57.2573L120.568 57.8221M120.612 57.2576C120.613 57.2577 120.615 57.2579 120.616 57.258L120.568 57.8221M113.877 54.8858C113.877 54.8859 113.877 54.886 113.877 54.8861L113.494 55.3027L113.877 54.8858ZM120.568 57.8221C123.184 58.0064 125.502 58.1908 125.681 58.2522M125.681 58.2522C125.918 58.3137 126.216 58.0064 126.394 57.6378M126.394 57.6378C126.572 57.2076 128.237 56.0401 130.08 54.9955L133.409 53.1521L135.43 55.4871C137.987 58.498 140.008 58.8053 142.148 56.5931L143.753 54.9955M143.753 54.9955L143.932 43.3818C144.05 37.0527 143.872 29.4331 143.515 26.4836M114.942 27.7172C114.941 27.7181 114.941 27.7184 114.941 27.7184L114.942 27.7172ZM118.922 41.6395C118.906 41.7041 118.893 41.7824 118.891 41.8679C118.834 41.8778 118.769 41.8867 118.696 41.8941C118.533 41.8954 118.378 41.9088 118.241 41.9383C118.122 41.9638 117.916 42.021 117.761 42.1816C117.669 42.2763 117.581 42.4233 117.576 42.6145C117.57 42.7991 117.644 42.943 117.713 43.0338C117.835 43.1963 118.013 43.2904 118.139 43.3464L118.139 43.3466L118.152 43.352C118.322 43.4221 118.491 43.6726 118.501 43.9992C118.506 44.1497 118.471 44.2438 118.447 44.2809C118.442 44.2879 118.442 44.2904 118.441 44.291C118.439 44.2917 118.437 44.2904 118.428 44.2904C118.226 44.2904 117.937 44.3423 117.737 44.5943C117.544 44.8364 117.55 45.1195 117.579 45.3C117.636 45.6547 117.859 46.0793 118.125 46.5074L118.125 46.5075L118.13 46.5153C119.026 47.9039 120.889 48.7956 122.847 49.1687C124.825 49.5455 127.058 49.4262 128.825 48.6302C129.31 48.415 129.92 47.9937 130.502 47.525C131.092 47.0494 131.693 46.4926 132.162 45.9764C132.827 45.2574 133.288 44.6414 133.528 44.0253C133.78 43.3778 133.773 42.7753 133.599 42.1288L133.596 42.1172L133.592 42.1057C133.176 40.7827 132.761 39.8175 131.65 39.2974C131.128 39.053 130.489 38.9242 129.702 38.8518C128.911 38.7791 127.926 38.7601 126.691 38.7601C122.97 38.7601 121.459 38.9892 120.153 40.0528C119.733 40.3876 119.39 40.7534 119.171 41.0932C119.062 41.2613 118.968 41.448 118.922 41.6395ZM118.553 42.2883C118.553 42.2883 118.554 42.289 118.556 42.2906C118.554 42.2891 118.553 42.2883 118.553 42.2883Z" fill="white" stroke="#16BC71" stroke-width="1.13231"/>
<path d="M159.411 56.8489L159.411 56.8486C158.15 55.7157 156.972 53.4898 156.355 51.5095C156.047 50.5216 155.9 49.6577 155.928 49.0702C155.942 48.772 155.999 48.6085 156.046 48.5359C156.069 48.4987 156.074 48.4957 156.119 48.4957C156.262 48.4957 156.468 48.4816 156.65 48.3807C156.753 48.3239 156.874 48.2245 156.946 48.0625C157.02 47.8969 157.012 47.7341 156.977 47.6097C156.918 47.3956 156.768 47.2399 156.669 47.1492C156.621 47.1054 156.568 47.0619 156.511 47.0188C156.606 46.9454 156.688 46.8615 156.756 46.7755C156.966 46.5113 157.102 46.1582 157.102 45.7789C157.102 45.3995 156.966 45.0465 156.756 44.7823C156.687 44.694 156.602 44.608 156.504 44.5332C156.597 44.4638 156.679 44.3997 156.746 44.3416C156.805 44.291 156.872 44.228 156.929 44.1559C156.972 44.1019 157.087 43.948 157.087 43.7281C157.087 43.4324 156.894 43.256 156.758 43.1811C156.738 43.1702 156.718 43.1605 156.699 43.1519C156.796 43.0587 156.924 42.9128 156.977 42.719C157.012 42.5946 157.02 42.4319 156.946 42.2663C156.874 42.1043 156.753 42.0049 156.65 41.9481C156.514 41.8725 156.364 41.8456 156.237 41.8369C156.195 41.7551 156.139 41.6005 156.088 41.338C155.973 40.7499 155.913 39.8131 155.913 38.4666C155.913 37.1858 155.972 36.2114 156.09 35.5465C156.149 35.212 156.218 34.9863 156.284 34.8477C156.311 34.7908 156.332 34.7608 156.343 34.747C156.498 34.6827 156.64 34.616 156.752 34.5465C156.807 34.5123 156.879 34.4627 156.944 34.3956C156.995 34.3429 157.131 34.1889 157.131 33.9501C157.131 33.6626 156.944 33.4956 156.836 33.4287C156.734 33.3654 156.63 33.3393 156.568 33.3266C156.521 33.3167 156.469 33.3094 156.416 33.3041C156.397 33.2404 156.375 33.1583 156.352 33.0555C156.266 32.6642 156.187 32.0867 156.12 31.3694C155.986 29.9413 155.905 28.0319 155.883 26.1166C155.861 24.2013 155.898 22.2959 155.999 20.8758C156.049 20.1622 156.115 19.5904 156.192 19.2061C156.214 19.0959 156.235 19.0113 156.253 18.9486C156.555 18.8435 156.758 18.5966 156.874 18.3735C157.031 18.0719 157.102 17.6995 157.102 17.3284C157.102 16.187 158.205 15.1493 159.888 14.6867C161.539 14.2331 163.388 14.4528 164.471 15.4677C164.848 15.8217 165.266 16.0954 165.793 16.259C166.313 16.4203 166.904 16.4638 167.613 16.4106C169.012 16.3056 170.999 15.8112 174.049 14.9237C175.97 14.3962 176.917 14.1456 177.919 14.1386C178.925 14.1315 180.011 14.3704 182.197 14.9276L182.197 14.9276L182.201 14.9287C183.436 15.2325 184.544 15.5648 185.337 15.8553C185.736 16.0016 186.039 16.1313 186.233 16.2351C186.272 16.2555 186.302 16.2733 186.327 16.2881C186.369 16.4288 186.438 16.5493 186.494 16.6368C186.595 16.7934 186.729 16.9533 186.879 17.1076C187.179 17.4178 187.583 17.7504 188.027 18.0458L188.028 18.0464C188.394 18.2885 188.735 18.5053 189.086 18.6358C189.464 18.7763 189.838 18.8129 190.271 18.7391C190.682 18.6692 191.138 18.5011 191.689 18.2557C192.245 18.0084 192.937 17.6641 193.825 17.2205L193.83 17.2179C196.87 15.6624 199.151 14.8049 201.382 14.5101C203.608 14.2161 205.833 14.4756 208.769 15.2343L208.771 15.2348C212.643 16.22 213.887 16.8622 214.766 17.9848L214.767 17.9856C215.142 18.4624 215.469 18.9346 215.7 19.3181C215.816 19.5106 215.903 19.672 215.958 19.7949C216 19.8878 216.011 19.9309 216.013 19.9368C216.02 20.3684 216.187 20.9321 216.396 21.4809C216.618 22.0637 216.918 22.7064 217.24 23.3037C217.56 23.8992 217.911 24.4666 218.236 24.8929C218.397 25.1043 218.565 25.2979 218.731 25.4444C218.814 25.5178 218.91 25.5904 219.015 25.647C219.053 25.6677 219.098 25.689 219.148 25.7075C219.163 25.7495 219.18 25.8058 219.199 25.8791C219.279 26.1877 219.352 26.6647 219.413 27.2961C219.534 28.5505 219.599 30.322 219.602 32.3612C219.61 36.4379 219.373 41.5291 218.871 45.5865L218.87 45.5912C218.575 48.1594 218.42 49.7369 218.436 50.7267C218.443 51.222 218.493 51.6265 218.621 51.9538C218.738 52.2526 218.911 52.4675 219.128 52.6282C219.126 52.6299 219.124 52.6316 219.122 52.6334C218.939 52.794 218.729 53.0126 218.509 53.2636C218.067 53.7686 217.547 54.4487 217.061 55.1716L217.061 55.1715L217.055 55.1808C216.333 56.3 215.894 56.8704 215.492 57.168C215.148 57.4224 214.802 57.4985 214.129 57.4428L214.121 57.4422L214.113 57.4417C213.21 57.3926 212.093 56.7307 211.004 55.4867L209.417 53.6204V40.7401V27.5903V27.3472L209.241 27.1798L207.041 25.0905L207.041 25.0901C205.15 23.2989 202.678 22.3858 200.361 22.3694C198.048 22.3531 195.826 23.2357 194.534 25.1169C194.208 25.5827 193.938 26.0231 193.728 26.6321C193.522 27.2314 193.382 27.9682 193.277 29.0239C193.066 31.1254 192.976 34.626 192.828 41.0959L192.828 41.0969C192.709 46.7225 192.59 50.1616 192.421 52.223C192.336 53.2585 192.24 53.9145 192.136 54.3165C192.083 54.5165 192.036 54.6233 192.006 54.6744C191.698 54.8047 191.299 55.0621 190.906 55.3577C190.477 55.6805 190.008 56.084 189.598 56.5073C189.146 56.9747 188.294 57.3538 187.447 57.5033C187.032 57.5766 186.657 57.5871 186.372 57.5427C186.069 57.4953 185.971 57.4039 185.953 57.3779L185.927 57.3396L185.894 57.3061C185.896 57.3084 185.896 57.3083 185.893 57.3047C185.888 57.299 185.876 57.2845 185.854 57.2568C185.823 57.2182 185.782 57.166 185.731 57.1005C185.654 57.0026 185.56 56.8804 185.451 56.7378C185.413 56.6895 185.374 56.639 185.334 56.5862C185.015 56.1721 184.597 55.6324 184.149 55.0761L182.665 53.1446V41.6004C182.665 31.0903 182.559 29.517 181.362 27.04C180.536 25.2737 179.872 24.1023 178.858 23.4122C177.833 22.7155 176.543 22.5691 174.677 22.5385L174.677 22.5384H174.668C173.148 22.5384 172.161 22.5606 171.26 22.9545C170.366 23.3453 169.606 24.0808 168.435 25.2917L165.938 27.8725L165.778 28.0371V28.2662V41.0474C165.778 47.2694 165.763 50.4443 165.58 52.33C165.49 53.2633 165.361 53.8471 165.187 54.3116C165.014 54.7753 164.785 55.1483 164.446 55.6667C163.703 56.7745 162.806 57.4012 161.942 57.5925C161.093 57.7805 160.207 57.5655 159.411 56.8489ZM156.302 44.2082C156.302 44.2082 156.3 44.2079 156.296 44.207C156.3 44.2076 156.302 44.2081 156.302 44.2082ZM156.339 34.4354C156.342 34.4361 156.342 34.4361 156.337 34.4351L156.339 34.4354ZM156.164 33.5787C156.164 33.5787 156.163 33.5792 156.162 33.5802C156.163 33.5792 156.164 33.5788 156.164 33.5787ZM156.299 18.8264C156.299 18.8264 156.298 18.8271 156.297 18.8285C156.298 18.827 156.299 18.8263 156.299 18.8264ZM219.101 25.6018C219.101 25.6014 219.103 25.6047 219.108 25.6131C219.103 25.6064 219.101 25.6023 219.101 25.6018Z" fill="#FDFDFD" stroke="#16BC71" stroke-width="1.13231"/>
</svg>
